<?xml version="1.0" standalone="no"?>
<!DOCTYPE svg PUBLIC "-//W3C//DTD SVG 20010904//EN"
 "http://www.w3.org/TR/2001/REC-SVG-20010904/DTD/svg10.dtd">
<svg version="1.0" xmlns="http://www.w3.org/2000/svg"
 width="520.000000pt" height="520.000000pt" viewBox="0 0 520.000000 520.000000"
 preserveAspectRatio="xMidYMid meet">
<metadata>
Created by potrace 1.11, written by Peter Selinger 2001-2013
</metadata>
<g transform="translate(0.000000,520.000000) scale(0.100000,-0.100000)"
fill="#000000" stroke="none">
<path d="M2395 5174 c-16 -2 -70 -9 -120 -15 -301 -36 -647 -149 -910 -296
-231 -128 -399 -256 -590 -448 -402 -403 -651 -909 -729 -1483 -21 -151 -21
-510 -1 -669 60 -453 242 -889 523 -1253 91 -117 296 -326 417 -423 370 -298
817 -490 1290 -552 162 -21 511 -21 665 0 479 66 920 255 1290 551 110 88 307
286 393 394 296 372 475 791 549 1285 20 140 17 550 -6 700 -43 279 -119 522
-246 780 -134 272 -262 449 -494 681 -222 221 -428 369 -701 500 -232 111
-489 190 -745 230 -99 15 -512 28 -585 18z m-673 -1229 c267 -32 534 -124 745
-257 l63 -40 0 -1142 c0 -629 -2 -1145 -5 -1148 -3 -3 -63 17 -133 43 -213 80
-494 129 -732 129 -177 0 -475 -39 -592 -76 -17 -5 -18 52 -18 1190 l0 1195
63 30 c77 38 193 68 312 79 133 14 158 13 297 -3z m2034 5 c137 -14 251 -41
332 -81 l62 -30 0 -1195 c0 -1138 -1 -1195 -18 -1190 -117 37 -415 76 -592 76
-238 0 -519 -49 -732 -129 -70 -26 -130 -46 -133 -43 -3 3 -5 519 -5 1148 l0
1142 63 40 c207 130 478 225 734 256 141 18 160 18 289 6z"/>
</g>
</svg>
